<?xml version="1.0" encoding="UTF-8" standalone="no"?>
<svg width="34px" height="17px" viewBox="0 0 34 17" version="1.1" xmlns="http://www.w3.org/2000/svg" xmlns:xlink="http://www.w3.org/1999/xlink" xmlns:sketch="http://www.bohemiancoding.com/sketch/ns">
    <!-- Generator: Sketch 3.2.2 (9983) - http://www.bohemiancoding.com/sketch -->
    <title>Rectangle 17 + Rectangle 11 + Rectangle 14</title>
    <desc>Created with Sketch.</desc>
    <defs></defs>
    <g id="Page-1" stroke="none" stroke-width="1" fill="none" fill-rule="evenodd" sketch:type="MSPage">
        <g id="Desktop-HD" sketch:type="MSArtboardGroup" transform="translate(-18.000000, -20.000000)">
            <g id="Group" sketch:type="MSLayerGroup">
                <g id="Rectangle-17-+-Rectangle-11-+-Rectangle-14" transform="translate(19.000000, 21.000000)" sketch:type="MSShapeGroup">
                    <rect id="Rectangle-17" x="0" y="0" width="32" height="15" class="logostroke"></rect>
                    <path d="M3,3 L15,3 L15,12 L3,12 L3,3 Z M5,5 L15,5 L15,10 L5,10 L5,5 Z" id="Rectangle-11" fill="#FFFFFF"></path>
                    <path d="M17,3 L29,3 L29,12 L17,12 L17,3 Z M19,5 L29,5 L29,8 L19,8 L19,5 Z M19,10 L29,10 L29,12 L19,12 L19,10 Z" id="Rectangle-14" fill="#FFFFFF"></path>
                </g>
            </g>
        </g>
    </g>
</svg>
