<?xml version="1.0" encoding="UTF-8" standalone="no"?>
<svg width="59px" height="60px" viewBox="0 0 59 60" version="1.1" xmlns="http://www.w3.org/2000/svg" xmlns:xlink="http://www.w3.org/1999/xlink" xmlns:sketch="http://www.bohemiancoding.com/sketch/ns">
    <!-- Generator: Sketch 3.2.2 (9983) - http://www.bohemiancoding.com/sketch -->
    <title>Imported Layers + Rectangle 2</title>
    <desc>Created with Sketch.</desc>
    <defs></defs>
    <g id="Page-1" stroke="none" stroke-width="1" fill="none" fill-rule="evenodd" sketch:type="MSPage">
        <g id="Imported-Layers-+-Rectangle-2" sketch:type="MSLayerGroup">
            <path d="M47.1428571,11.3194103 L49.2244898,11.3194103 C49.2244898,9.35257985 50.8163265,7.63390663 52.8979592,7.63390663 C54.8571429,7.63390663 56.5714286,9.23095823 56.5714286,11.3194103 L56.5714286,44.5921376 L53.877551,44.5921376 C53.3889796,39.3095823 48.8571429,35.1314496 43.4693878,35.1314496 C38.0828571,35.1314496 33.5510204,39.3095823 33.0612245,44.5921376 L25.5918367,44.5921376 C25.1020408,39.3095823 20.5714286,35.1314496 15.1836735,35.1314496 C9.79591837,35.1314496 5.26530612,39.3095823 4.7755102,44.5921376 L2.08163265,44.5921376 L2.08163265,11.3194103 C2.08163265,9.35257985 3.67346939,7.63390663 5.75510204,7.63390663 C7.71428571,7.63390663 9.42857143,9.23095823 9.42857143,11.3194103 L11.5102041,11.3194103 C11.5102041,9.09481146 10.2638369,7.16912975 8.43222592,6.20441064 C7.63297848,5.78344283 6.72229314,5.54545455 5.75510204,5.54545455 C2.57265306,5.54545455 0,8.12407862 0,11.3194103 L0,45.5737101 C0,46.1879607 0.489795918,46.6805897 1.10204082,46.6805897 L4.7755102,46.6805897 C5.26530612,51.963145 9.79591837,56.1388206 15.1836735,56.1388206 C20.5714286,56.1388206 25.1020408,51.963145 25.5918367,46.6805897 L33.0612245,46.6805897 C33.5510204,51.963145 38.0828571,56.1388206 43.4693878,56.1388206 C48.8571429,56.1388206 53.3889796,51.963145 53.877551,46.6805897 L57.5510204,46.6805897 C58.1632653,46.6805897 58.6530612,46.1879607 58.6530612,45.5737101 L58.6530612,11.3194103 C58.6530612,8.12407862 56.0816327,5.54545455 52.8979592,5.54545455 C49.7155102,5.54545455 47.1428571,8.12407862 47.1428571,11.3194103 Z M15.3061224,54.0515971 C10.6530612,54.0515971 6.97959184,50.2432432 6.97959184,45.6953317 C6.97959184,41.1523342 10.7755102,37.3439803 15.3061224,37.3439803 C19.9591837,37.3439803 23.6326531,41.1523342 23.6326531,45.6953317 C23.6326531,50.2432432 19.8367347,54.0515971 15.3061224,54.0515971 L15.3061224,54.0515971 Z M43.4693878,54.0515971 C38.8163265,54.0515971 35.1428571,50.2432432 35.1428571,45.6953317 C35.1428571,41.1523342 38.9387755,37.3439803 43.4693878,37.3439803 C48.122449,37.3439803 51.7959184,41.1523342 51.7959184,45.6953317 C51.7959184,50.2432432 48.122449,54.0515971 43.4693878,54.0515971 L43.4693878,54.0515971 Z" id="Imported-Layers" fill="#000000" sketch:type="MSShapeGroup"></path>
            <rect id="Rectangle-2" stroke="#979797" fill="#D8D8D8" sketch:type="MSShapeGroup" x="0" y="0" width="1.81818182" height="1.81818182"></rect>
            <rect id="Rectangle-3" stroke="#979797" fill="#D8D8D8" sketch:type="MSShapeGroup" x="0" y="58" width="1.81818182" height="1.81818182"></rect>
        </g>
    </g>
</svg>