<?xml version="1.0" encoding="UTF-8" standalone="no"?>
<svg width="61px" height="32px" viewBox="0 0 61 32" version="1.1" xmlns="http://www.w3.org/2000/svg" xmlns:xlink="http://www.w3.org/1999/xlink" xmlns:sketch="http://www.bohemiancoding.com/sketch/ns">
    <!-- Generator: Sketch 3.2.2 (9983) - http://www.bohemiancoding.com/sketch -->
    <title>Keyboard 2</title>
    <desc>Created with Sketch.</desc>
    <defs></defs>
    <g id="Page-1" stroke="none" stroke-width="1" fill="none" fill-rule="evenodd" sketch:type="MSPage">
        <g id="Icons" sketch:type="MSLayerGroup" transform="translate(-64.000000, -199.000000)" fill="#FFFFFF">
            <path d="M119.782,199 L69.192,199 C66.606,199 64.5,201.106 64.5,203.692 L64.5,225.38 C64.5,227.966 66.606,230.072 69.192,230.072 L119.782,230.072 C122.368,230.072 124.474,227.966 124.474,225.38 L124.474,203.692 C124.472,201.106 122.368,199 119.782,199 L119.782,199 Z M122.32,225.38 C122.32,226.778 121.18,227.92 119.78,227.92 L69.19,227.92 C67.792,227.92 66.65,226.78 66.65,225.38 L66.65,203.692 C66.65,202.29 67.79,201.152 69.19,201.152 L119.78,201.152 C121.178,201.152 122.32,202.288 122.32,203.692 L122.32,225.38 L122.32,225.38 Z M105.332,220.688 L83.644,220.688 C83.046,220.688 82.566,221.172 82.566,221.762 C82.566,222.356 83.046,222.84 83.644,222.84 L105.332,222.84 C105.926,222.84 106.406,222.356 106.406,221.762 C106.406,221.172 105.926,220.688 105.332,220.688 L105.332,220.688 Z M105.576,215.426 C106.170258,215.426 106.652,214.944258 106.652,214.35 C106.652,213.755742 106.170258,213.274 105.576,213.274 C104.981742,213.274 104.5,213.755742 104.5,214.35 C104.5,214.944258 104.981742,215.426 105.576,215.426 Z M97.576,215.426 C98.1702584,215.426 98.652,214.944258 98.652,214.35 C98.652,213.755742 98.1702584,213.274 97.576,213.274 C96.9817416,213.274 96.5,213.755742 96.5,214.35 C96.5,214.944258 96.9817416,215.426 97.576,215.426 Z M91.576,215.426 C92.1702584,215.426 92.652,214.944258 92.652,214.35 C92.652,213.755742 92.1702584,213.274 91.576,213.274 C90.9817416,213.274 90.5,213.755742 90.5,214.35 C90.5,214.944258 90.9817416,215.426 91.576,215.426 Z M83.632,215.61 C84.226,215.61 84.71,215.134 84.71,214.536 C84.71,213.938 84.226,213.458 83.632,213.458 C83.042,213.458 82.558,213.938 82.558,214.536 C82.558,215.134 83.042,215.61 83.632,215.61 L83.632,215.61 Z M111.574,207.422 C112.167154,207.422 112.648,206.941154 112.648,206.348 C112.648,205.754846 112.167154,205.274 111.574,205.274 C110.980846,205.274 110.5,205.754846 110.5,206.348 C110.5,206.941154 110.980846,207.422 111.574,207.422 Z M105.332,206.232 C104.738,206.232 104.254,206.708 104.254,207.306 C104.254,207.904 104.738,208.38 105.332,208.38 C105.922,208.38 106.406,207.904 106.406,207.306 C106.406,206.708 105.922,206.232 105.332,206.232 L105.332,206.232 Z M97.574,207.422 C98.1671538,207.422 98.648,206.941154 98.648,206.348 C98.648,205.754846 98.1671538,205.274 97.574,205.274 C96.9808462,205.274 96.5,205.754846 96.5,206.348 C96.5,206.941154 96.9808462,207.422 97.574,207.422 Z M90.868,208.38 C91.462,208.38 91.946,207.904 91.946,207.306 C91.946,206.708 91.462,206.232 90.868,206.232 C90.278,206.232 89.794,206.708 89.794,207.306 C89.794,207.904 90.278,208.38 90.868,208.38 L90.868,208.38 Z M83.574,207.422 C84.1671538,207.422 84.648,206.941154 84.648,206.348 C84.648,205.754846 84.1671538,205.274 83.574,205.274 C82.9808462,205.274 82.5,205.754846 82.5,206.348 C82.5,206.941154 82.9808462,207.422 83.574,207.422 Z M75.574,207.422 C76.1671538,207.422 76.648,206.941154 76.648,206.348 C76.648,205.754846 76.1671538,205.274 75.574,205.274 C74.9808462,205.274 74.5,205.754846 74.5,206.348 C74.5,206.941154 74.9808462,207.422 75.574,207.422 Z" id="Keyboard-2" sketch:type="MSShapeGroup"></path>
        </g>
    </g>
</svg>