<?xml version="1.0" encoding="UTF-8" standalone="no"?>
<svg width="39px" height="60px" viewBox="0 0 39 60" version="1.1" xmlns="http://www.w3.org/2000/svg" xmlns:xlink="http://www.w3.org/1999/xlink" xmlns:sketch="http://www.bohemiancoding.com/sketch/ns">
    <!-- Generator: Sketch 3.2.2 (9983) - http://www.bohemiancoding.com/sketch -->
    <title>Pen 2</title>
    <desc>Created with Sketch.</desc>
    <defs></defs>
    <g id="Page-1" stroke="none" stroke-width="1" fill="none" fill-rule="evenodd" sketch:type="MSPage">
        <g id="Icons" sketch:type="MSLayerGroup" transform="translate(-637.000000, -128.000000)" fill="#FFFFFF">
            <path d="M675.294496,129.02 C675.258496,128.446 674.786496,128 674.216496,128 L638.084496,128 C637.510496,128 637.042496,128.446 637.006496,129.02 C636.998496,129.31 636.736496,135.84 640.546496,140.196 L637.066496,150.422 C636.976496,150.692 636.992496,150.988 637.124496,151.246 L655.190496,187.39 C655.230496,187.464 655.300496,187.504 655.346496,187.562 C655.392496,187.616 655.424496,187.664 655.478496,187.706 C655.670496,187.87 655.892496,187.988 656.150496,187.988 C656.412496,187.988 656.634496,187.87 656.826496,187.706 C656.880496,187.664 656.912496,187.616 656.958496,187.562 C657.004496,187.504 657.076496,187.464 657.114496,187.39 L675.188496,151.246 C675.316496,150.988 675.332496,150.688 675.242496,150.414 L671.722496,140.238 C675.572496,135.884 675.306496,129.31 675.294496,129.02 L675.294496,129.02 Z M673.138496,130.152 C673.056496,132.038 672.592496,136.132 670.088496,138.906 L642.210496,138.906 C639.714496,136.132 639.246496,132.038 639.168496,130.152 L673.138496,130.152 L673.138496,130.152 Z M656.170496,160.536 L656.134496,160.536 C654.744496,160.536 653.614496,159.4 653.614496,158.004 C653.614496,156.602 654.750496,155.458 656.150496,155.458 C657.552496,155.458 658.690496,156.602 658.690496,158.004 C658.690496,158.676 658.428496,159.316 657.952496,159.79 C657.470496,160.27 656.842496,160.536 656.170496,160.536 L656.170496,160.536 Z M657.228496,182.356 L657.228496,162.478 C658.060496,162.278 658.850496,161.938 659.470496,161.314 C660.352496,160.432 660.842496,159.252 660.842496,158.006 C660.842496,155.416 658.736496,153.306 656.150496,153.306 C653.568496,153.306 651.462496,155.416 651.462496,158.006 C651.462496,160.21 653.020496,161.974 655.076496,162.47 L655.076496,182.356 L639.252496,150.688 L642.522496,141.056 L669.732496,141.056 L673.060496,150.692 L657.228496,182.356 L657.228496,182.356 Z" id="Pen-2" sketch:type="MSShapeGroup"></path>
        </g>
    </g>
</svg>