<?xml version="1.0" encoding="utf-8"?>
<!-- Generator: Adobe Illustrator 18.1.1, SVG Export Plug-In . SVG Version: 6.00 Build 0)  -->
<svg version="1.1" id="Layer_1" xmlns="http://www.w3.org/2000/svg" xmlns:xlink="http://www.w3.org/1999/xlink" x="0px" y="0px"
	 width="1142px" height="841px" viewBox="271 -120 1142 841" enable-background="new 271 -120 1142 841" xml:space="preserve">
<g>
	<path fill="#8198A3" stroke="#8198A3" d="M1599.9,615.6l42.3-229.7l-39,145L1599.9,615.6z"/>
	<path fill="#78909C" stroke="#78909C" d="M1599.9,615.6l3.3-84.8l-113.8,95.1L1599.9,615.6z"/>
	<path fill="#869BA6" stroke="#869BA6" d="M1599.9,615.6l-110.5,10.3l-439.6,47.5L1599.9,615.6z"/>
	<path fill="#869BA6" stroke="#869BA6" d="M1489.4,625.9l113.8-95.1l-172.3-26.1L1489.4,625.9z"/>
	<path fill="#8EA2AC" stroke="#8EA2AC" d="M1489.4,625.9l-58.5-121.2l-160.1,107.7L1489.4,625.9z"/>
	<path fill="#94A7B1" stroke="#94A7B1" d="M1489.4,625.9l-218.6-13.5l-221,61L1489.4,625.9z"/>
	<path fill="#9EAFB8" stroke="#9EAFB8" d="M1270.8,612.5l160.1-107.7L1322,481L1270.8,612.5z"/>
	<path fill="#B8C5CB" stroke="#B8C5CB" d="M1270.8,612.5L1322,481l-124.3-7.9L1270.8,612.5z"/>
	<path fill="#B6C3C9" stroke="#B6C3C9" d="M1270.8,612.5l-73.1-139.4l-20.3,138.6L1270.8,612.5z"/>
	<path fill="#B1BFC6" stroke="#B1BFC6" d="M1270.8,612.5l-93.5-0.8l-127.6,61.8L1270.8,612.5z"/>
	<path fill="#C1CCD2" stroke="#C1CCD2" d="M1177.4,611.7l20.3-138.6l-164.2,57L1177.4,611.7z"/>
	<path fill="#BBC7CD" stroke="#BBC7CD" d="M1177.4,611.7l-143.8-81.6l16.3,143.4L1177.4,611.7z"/>
	<path fill="#BDC9CF" stroke="#BDC9CF" d="M1049.8,673.5l-16.3-143.4L891.3,689.3L1049.8,673.5z"/>
	<path fill="#C8D2D7" stroke="#C8D2D7" d="M891.3,689.3l142.2-159.2l-217-70.5L891.3,689.3z"/>
	<path fill="#BDC9CF" stroke="#BDC9CF" d="M891.3,689.3l-74.8-229.7l-84.5,203.6L891.3,689.3z"/>
	<path fill="#8EA2AC" stroke="#8EA2AC" d="M891.3,689.3l-159.3-26.1L70.6,633.9L891.3,689.3z"/>
	<path fill="#C5D0D5" stroke="#C5D0D5" d="M732.1,663.2l84.5-203.6l-49.5,12.6L732.1,663.2z"/>
	<path fill="#BAC6CD" stroke="#BAC6CD" d="M732.1,663.2l35-191L602.8,576L732.1,663.2z"/>
	<path fill="#96A8B2" stroke="#96A8B2" d="M732.1,663.2l-129.2-87.1l-247,43.6L732.1,663.2z"/>
	<path fill="#79919D" stroke="#79919D" d="M732.1,663.2l-376.3-43.6L70.6,633.9L732.1,663.2z"/>
	<path fill="#BFCAD0" stroke="#BFCAD0" d="M602.8,576l164.2-103.8l-195.9,8L602.8,576z"/>
	<path fill="#B2BFC6" stroke="#B2BFC6" d="M602.8,576l-31.7-95.8l-128.4,59.4L602.8,576z"/>
	<path fill="#90A4AE" stroke="#90A4AE" d="M602.8,576l-160.1-36.4l-87,80L602.8,576z"/>
	<path fill="#8A9EA9" stroke="#8A9EA9" d="M355.9,619.6l87-80L277.1,434.2L355.9,619.6z"/>
	<path fill="#7C939F" stroke="#7C939F" d="M355.9,619.6l-78.8-185.4l-17.9,179L355.9,619.6z"/>
	<path fill="#4B5F69" stroke="#4B5F69" d="M355.9,619.6l-96.7-6.3L70.6,633.9L355.9,619.6z"/>
	<path fill="#5B6E77" stroke="#5B6E77" d="M259.2,613.3l17.9-179L41.4,508.7L259.2,613.3z"/>
	<path fill="#455A64" stroke="#455A64" d="M259.2,613.3L41.4,508.7l29.3,125.2L259.2,613.3z"/>
	<path fill="#8FA3AD" stroke="#8FA3AD" d="M1603.2,530.9l39-145l-211.3,118.8L1603.2,530.9z"/>
	<path fill="#B8C5CB" stroke="#B8C5CB" d="M1430.9,504.7l211.3-118.8l-217-72.1L1430.9,504.7z"/>
	<path fill="#BAC6CD" stroke="#BAC6CD" d="M1430.9,504.7l-5.7-190.9L1322.1,481L1430.9,504.7z"/>
	<path fill="#CCD5D9" stroke="#CCD5D9" d="M1322.1,481l103.2-167.2l-42.3-35.7L1322.1,481z"/>
	<path fill="#D2DADE" stroke="#D2DADE" d="M1322.1,481l60.9-202.8l-204,93.5L1322.1,481z"/>
	<path fill="#CBD4D9" stroke="#CBD4D9" d="M1322.1,481l-143-109.3l18.7,101.4L1322.1,481z"/>
	<path fill="#CFD7DC" stroke="#CFD7DC" d="M1197.8,473l-18.7-101.4L1033.6,530L1197.8,473z"/>
	<path fill="#DEE4E7" stroke="#DEE4E7" d="M1033.6,530.1l145.5-158.4l-175.5-95.1L1033.6,530.1z"/>
	<path fill="#E7ECEE" stroke="#E7ECEE" d="M1033.6,530.1l-30.1-253.5l-169,81.6L1033.6,530.1z"/>
	<path fill="#D5DDE0" stroke="#D5DDE0" d="M1033.6,530.1L834.5,358.2l-17.9,101.4L1033.6,530.1z"/>
	<path fill="#D5DDE0" stroke="#D5DDE0" d="M816.6,459.6l17.9-101.4l-67.4,114L816.6,459.6z"/>
	<path fill="#D8DFE2" stroke="#D8DFE2" d="M767.1,472.2l67.4-114l-163.3,21.4L767.1,472.2z"/>
	<path fill="#CDD6DA" stroke="#CDD6DA" d="M767.1,472.2l-95.9-92.7l-100,100.7L767.1,472.2z"/>
	<path fill="#D2DADE" stroke="#D2DADE" d="M571.2,480.2l100-100.6l-148.7-57.8L571.2,480.2z"/>
	<path fill="#CBD4D9" stroke="#CBD4D9" d="M571.2,480.2l-48.8-158.4l-82.9,57L571.2,480.2z"/>
	<path fill="#B7C4CA" stroke="#B7C4CA" d="M571.2,480.2L439.6,378.8l3.3,160.8L571.2,480.2z"/>
	<path fill="#9FB0B9" stroke="#9FB0B9" d="M442.8,539.6l-3.3-160.8l-162.4,55.4L442.8,539.6z"/>
	<path fill="#B4C1C8" stroke="#B4C1C8" d="M277.1,434.2l162.5-55.5l-249.5-63.4L277.1,434.2z"/>
	<path fill="#98ABB4" stroke="#98ABB4" d="M277.1,434.2l-87-118.8l-77.2,25.4L277.1,434.2z"/>
	<path fill="#849AA5" stroke="#849AA5" d="M277.1,434.2l-164.2-93.5l-71.5,168L277.1,434.2z"/>
	<path fill="#8FA3AD" stroke="#8FA3AD" d="M41.4,508.7l71.5-168l2.4-106.2L41.4,508.7z"/>
	<path fill="#9BADB6" stroke="#9BADB6" d="M41.4,508.7l73.9-274.1l14.6-191.7L41.4,508.7z"/>
	<path fill="#98ABB4" stroke="#98ABB4" d="M41.4,508.7L130,42.9l-6.5-183.8L41.4,508.7z"/>
	<path fill="#8CA1AB" stroke="#8CA1AB" d="M41.4,508.7l82.1-649.6l-13-116.5L41.4,508.7z"/>
	<path fill="#9FB0B9" stroke="#9FB0B9" d="M1642.2,385.9l45.5-680.5l-45.5,328V385.9z"/>
	<path fill="#BECACF" stroke="#BECACF" d="M1642.2,385.9V33.3l-52,149.7L1642.2,385.9z"/>
	<path fill="#C3CED3" stroke="#C3CED3" d="M1642.2,385.9l-52-202.8l-165,130.7L1642.2,385.9z"/>
	<path fill="#CCD5D9" stroke="#CCD5D9" d="M1425.2,313.8l165-130.7l-169,10.3L1425.2,313.8z"/>
	<path fill="#D1D9DD" stroke="#D1D9DD" d="M1425.2,313.8l-4.1-120.4l-38.2,84.8L1425.2,313.8z"/>
	<path fill="#D0D9DD" stroke="#D0D9DD" d="M1382.9,278.1l38.2-84.8l-143,2.4L1382.9,278.1z"/>
	<path fill="#DAE1E4" stroke="#DAE1E4" d="M1382.9,278.1l-104.8-82.4L1179,371.6L1382.9,278.1z"/>
	<path fill="#E7ECEE" stroke="#E7ECEE" d="M1179.1,371.6l99.1-175.9l-250.3,23.8L1179.1,371.6z"/>
	<path fill="#EFF2F3" stroke="#EFF2F3" d="M1179.1,371.6l-151.2-152.1l-24.4,57L1179.1,371.6z"/>
	<path fill="#F9FAFB" stroke="#F9FAFB" d="M1003.5,276.6l24.4-57l-212.9,11.9L1003.5,276.6z"/>
	<path fill="#F4F6F7" stroke="#F4F6F7" d="M1003.5,276.6L815,231.4l19.5,126.8L1003.5,276.6z"/>
	<path fill="#F0F3F4" stroke="#F0F3F4" d="M834.5,358.2L815,231.4l-69.9-11.1L834.5,358.2z"/>
	<path fill="#E8EDEF" stroke="#E8EDEF" d="M834.5,358.2l-89.4-137.8l-73.9,159.2L834.5,358.2z"/>
	<path fill="#E1E6E9" stroke="#E1E6E9" d="M671.2,379.5l73.9-159.2L522.5,321.7L671.2,379.5z"/>
	<path fill="#E0E6E8" stroke="#E0E6E8" d="M522.5,321.7l222.7-101.4l-173.1-84L522.5,321.7z"/>
	<path fill="#CFD8DC" stroke="#CFD8DC" d="M522.5,321.7l49.6-185.4l-230,41.2L522.5,321.7z"/>
	<path fill="#D0D9DD" stroke="#D0D9DD" d="M522.5,321.7L342.1,177.5l97.5,201.2L522.5,321.7z"/>
	<path fill="#C3CED3" stroke="#C3CED3" d="M439.6,378.8l-97.5-201.2l-152,137.8L439.6,378.8z"/>
	<path fill="#BBC7CD" stroke="#BBC7CD" d="M190.1,315.4l152-137.8l-122.7,27.7L190.1,315.4z"/>
	<path fill="#B2C0C7" stroke="#B2C0C7" d="M190.1,315.4l29.3-110.1l-104,29.3L190.1,315.4z"/>
	<path fill="#9EAFB8" stroke="#9EAFB8" d="M190.1,315.4l-74.8-80.8l-2.4,106.2L190.1,315.4z"/>
	<path fill="#BBC7CD" stroke="#BBC7CD" d="M1590.2,183.1l52-149.7l-107.3,3.2L1590.2,183.1z"/>
	<path fill="#C6D0D5" stroke="#C6D0D5" d="M1590.2,183.1l-55.3-146.6l-113.8,156.9L1590.2,183.1z"/>
	<path fill="#CCD5DA" stroke="#CCD5DA" d="M1421.2,193.4L1535,36.5l-238.1,49.1L1421.2,193.4z"/>
	<path fill="#D2DADE" stroke="#D2DADE" d="M1421.2,193.4L1296.8,85.6l-18.7,110.1L1421.2,193.4z"/>
	<path fill="#DBE1E4" stroke="#DBE1E4" d="M1278.2,195.8l18.7-110.1l-73.9,45.2L1278.2,195.8z"/>
	<path fill="#E7EBED" stroke="#E7EBED" d="M1278.2,195.8l-55.3-65l-195,88.7L1278.2,195.8z"/>
	<path fill="#D9E0E3" stroke="#D9E0E3" d="M1222.9,130.8l73.9-45.2l-73.1-29.3L1222.9,130.8z"/>
	<path fill="#E2E7EA" stroke="#E2E7EA" d="M1222.9,130.8l0.8-74.5l-214.5-17.4L1222.9,130.8z"/>
	<path fill="#EDF1F2" stroke="#EDF1F2" d="M1222.9,130.8l-213.7-91.9l18.7,180.6L1222.9,130.8z"/>
	<path fill="#F8FAFA" stroke="#F8FAFA" d="M1027.8,219.5l-18.7-180.6L815,231.4L1027.8,219.5z"/>
	<path fill="#EFF2F3" stroke="#EFF2F3" d="M815,231.4l194.2-192.5L833.7-28.5L815,231.4z"/>
	<path fill="#E9EDEF" stroke="#E9EDEF" d="M815,231.4l18.7-259.9L685,78.5L815,231.4z"/>
	<path fill="#ECF0F1" stroke="#ECF0F1" d="M815,231.4L685,78.5l60.1,141.8L815,231.4z"/>
	<path fill="#E3E8EA" stroke="#E3E8EA" d="M745.1,220.3L685,78.5l-113,57.8L745.1,220.3z"/>
	<path fill="#D8DFE2" stroke="#D8DFE2" d="M572,136.3l113-57.8L546,53.1L572,136.3z"/>
	<path fill="#D5DDE0" stroke="#D5DDE0" d="M572,136.3l-26-83.2L342,177.5L572,136.3z"/>
	<path fill="#C9D3D8" stroke="#C9D3D8" d="M342.1,177.5l204-124.4L374.6-15L342.1,177.5z"/>
	<path fill="#BBC7CD" stroke="#BBC7CD" d="M342.1,177.5L374.6-15L271.4,1.7L342.1,177.5z"/>
	<path fill="#BCC8CE" stroke="#BCC8CE" d="M342.1,177.5L271.4,1.7l-52,203.6L342.1,177.5z"/>
	<path fill="#B0BEC5" stroke="#B0BEC5" d="M219.4,205.3l52-203.6L130,42.9L219.4,205.3z"/>
	<path fill="#B0BEC5" stroke="#B0BEC5" d="M219.4,205.3L130,42.9l-14.7,191.7L219.4,205.3z"/>
	<path fill="#50646D" stroke="#50646D" d="M1642.2,33.3l45.5-328l-34.9,129.1L1642.2,33.3z"/>
	<path fill="#93A6B0" stroke="#93A6B0" d="M1642.2,33.3l10.6-198.8L1535,36.5L1642.2,33.3z"/>
	<path fill="#8EA2AC" stroke="#8EA2AC" d="M1534.9,36.5l117.8-202l-212.1,80.8L1534.9,36.5z"/>
	<path fill="#C0CBD1" stroke="#C0CBD1" d="M1534.9,36.5l-94.3-121.2L1296.8,85.6L1534.9,36.5z"/>
	<path fill="#B9C6CC" stroke="#B9C6CC" d="M1296.8,85.6l143.8-170.3l-132.4-61.8L1296.8,85.6z"/>
	<path fill="#CDD6DA" stroke="#CDD6DA" d="M1296.8,85.6l11.4-232.1l-84.5,202.8L1296.8,85.6z"/>
	<path fill="#C3CED3" stroke="#C3CED3" d="M1223.8,56.3l84.5-202.8l-121.9,57L1223.8,56.3z"/>
	<path fill="#D4DCE0" stroke="#D4DCE0" d="M1223.8,56.3l-37.4-145.8L1009.2,38.9L1223.8,56.3z"/>
	<path fill="#D1D9DD" stroke="#D1D9DD" d="M1009.2,38.9l177.2-128.3l-223.5-53.9L1009.2,38.9z"/>
	<path fill="#D2DADE" stroke="#D2DADE" d="M1009.2,38.9l-46.3-182.2L862.9-68L1009.2,38.9z"/>
	<path fill="#DBE2E5" stroke="#DBE2E5" d="M1009.2,38.9l-146.3-107l-29.3,39.6L1009.2,38.9z"/>
	<path fill="#CCD5DA" stroke="#CCD5DA" d="M833.7-28.5L863-68.1l-192.6-62.6L833.7-28.5z"/>
	<path fill="#D4DCE0" stroke="#D4DCE0" d="M833.7-28.5L670.3-130.6l14.6,209.1L833.7-28.5z"/>
	<path fill="#D3DBDF" stroke="#D3DBDF" d="M685,78.5l-14.6-209.1L546,53.1L685,78.5z"/>
	<path fill="#BBC7CD" stroke="#BBC7CD" d="M546,53.1l124.3-183.8l-80.5-34.9L546,53.1z"/>
	<path fill="#BDC8CE" stroke="#BDC8CE" d="M546,53.1l43.9-218.7L374.6-15L546,53.1z"/>
	<path fill="#97AAB3" stroke="#97AAB3" d="M374.6-15l215.3-150.5L346.1-83.1L374.6-15z"/>
	<path fill="#98ABB4" stroke="#98ABB4" d="M374.6-15l-28.4-68.1L271.4,1.7L374.6-15z"/>
	<path fill="#869BA6" stroke="#869BA6" d="M271.4,1.7l74.8-84.8l-69.1-80.8L271.4,1.7z"/>
	<path fill="#5B6E77" stroke="#5B6E77" d="M271.4,1.7l5.7-165.6l-153.6,23L271.4,1.7z"/>
	<path fill="#8399A4" stroke="#8399A4" d="M271.4,1.7L123.5-140.9L130,42.9L271.4,1.7z"/>
	<path fill="#4E626C" stroke="#4E626C" d="M1652.8-165.5l34.9-129.1l-165.8-19.8L1652.8-165.5z"/>
	<path fill="#4E626C" stroke="#4E626C" d="M1652.8-165.5l-130.8-148.9l-81.3,229.7L1652.8-165.5z"/>
	<path fill="#52666F" stroke="#52666F" d="M1440.7-84.7l81.3-229.7l-205.6,18.2L1440.7-84.7z"/>
	<path fill="#8399A4" stroke="#8399A4" d="M1440.7-84.7l-124.3-211.5l-8.1,149.7L1440.7-84.7z"/>
	<path fill="#7C939F" stroke="#7C939F" d="M1308.2-146.5l8.1-149.7l-126.8-9.5L1308.2-146.5z"/>
	<path fill="#92A5AF" stroke="#92A5AF" d="M1308.2-146.5l-118.6-159.2l-3.3,216.3L1308.2-146.5z"/>
	<path fill="#93A6B0" stroke="#93A6B0" d="M1186.3-89.5l3.3-216.3l-182,29.3L1186.3-89.5z"/>
	<path fill="#B4C1C8" stroke="#B4C1C8" d="M1186.3-89.5l-178.8-187l-44.7,133.1L1186.3-89.5z"/>
	<path fill="#9CAEB7" stroke="#9CAEB7" d="M962.8-143.3l44.7-133.1l-137.3-19L962.8-143.3z"/>
	<path fill="#B8C5CB" stroke="#B8C5CB" d="M962.8-143.3l-92.6-152.1L863-68L962.8-143.3z"/>
	<path fill="#9BADB6" stroke="#9BADB6" d="M863-68.1l7.3-227.4l-158.5,27.7L863-68.1z"/>
	<path fill="#B3C1C7" stroke="#B3C1C7" d="M863-68.1L711.8-267.7l-41.4,137.1L863-68.1z"/>
	<path fill="#93A6B0" stroke="#93A6B0" d="M670.3-130.6l41.4-137.1L589.8-165.5L670.3-130.6z"/>
	<path fill="#8097A2" stroke="#8097A2" d="M589.8-165.5l121.9-102.2l-184.5-28.5L589.8-165.5z"/>
	<path fill="#596C75" stroke="#596C75" d="M589.8-165.5l-62.6-130.7l-145.4,2.4L589.8-165.5z"/>
	<path fill="#79919D" stroke="#79919D" d="M589.8-165.5l-208-128.3L346.1-83.1L589.8-165.5z"/>
	<path fill="#50646D" stroke="#50646D" d="M346.1-83.1l35.8-210.7L277.1-163.9L346.1-83.1z"/>
	<path fill="#546770" stroke="#546770" d="M277.1-163.9l104.8-129.9l-176.3,40.4L277.1-163.9z"/>
	<path fill="#546770" stroke="#546770" d="M277.1-163.9l-71.5-89.5l-82.1,112.5L277.1-163.9z"/>
	<path fill="#475C66" stroke="#475C66" d="M123.5-140.9l82.1-112.5l-95.1-4L123.5-140.9z"/>
	<path fill="#8A9EA9" stroke="#8A9EA9" d="M1521.9-314.4L381.9-293.8l145.5-2.4L1521.9-314.4z"/>
	<path fill="#879CA7" stroke="#879CA7" d="M1521.9-314.4l-994.7,18.2l662.3-9.5L1521.9-314.4z"/>
	<path fill="#4E626C" stroke="#4E626C" d="M1521.9-314.4l-332.4,8.7l126.8,9.5L1521.9-314.4z"/>
	<path fill="#8CA1AB" stroke="#8CA1AB" d="M1189.6-305.7l-662.3,9.5l342.9,0.8L1189.6-305.7z"/>
	<path fill="#8CA1AB" stroke="#8CA1AB" d="M1189.6-305.7l-319.3,10.3l137.3,19L1189.6-305.7z"/>
	<path fill="#8097A2" stroke="#8097A2" d="M870.2-295.4l-343-0.8l184.5,28.5L870.2-295.4z"/>
	<path fill="#455A64" stroke="#455A64" d="M381.9-293.8l-271.4,36.4l95.1,4L381.9-293.8z"/>
</g>
<linearGradient id="SVGID_1_" gradientUnits="userSpaceOnUse" x1="848.1" y1="-93.2" x2="848.1" y2="706.6125" gradientTransform="matrix(1 0 0 -1 0 602)">
	<stop  offset="0.129" style="stop-color:#FFFFFF"/>
	<stop  offset="1" style="stop-color:#FFFFFF;stop-opacity:0.1"/>
</linearGradient>
<rect x="265.2" y="-117.8" fill="url(#SVGID_1_)" width="1165.7" height="834.5"/>
<radialGradient id="SVGID_2_" cx="832.25" cy="172" r="559.2" gradientTransform="matrix(1 0 0 -1 0 602)" gradientUnits="userSpaceOnUse">
	<stop  offset="0.1814" style="stop-color:#FFFFFF;stop-opacity:0.4"/>
	<stop  offset="1" style="stop-color:#FFFFFF;stop-opacity:0"/>
</radialGradient>
<circle fill="url(#SVGID_2_)" cx="832.2" cy="430" r="559.2"/>
</svg>
