<?xml version="1.0" encoding="UTF-8" standalone="no"?>
<svg width="61px" height="60px" viewBox="0 0 61 60" version="1.1" xmlns="http://www.w3.org/2000/svg" xmlns:xlink="http://www.w3.org/1999/xlink" xmlns:sketch="http://www.bohemiancoding.com/sketch/ns">
    <!-- Generator: Sketch 3.2.2 (9983) - http://www.bohemiancoding.com/sketch -->
    <title>User round 2</title>
    <desc>Created with Sketch.</desc>
    <defs></defs>
    <g id="Page-1" stroke="none" stroke-width="1" fill="none" fill-rule="evenodd" sketch:type="MSPage">
        <g id="Icons" sketch:type="MSLayerGroup" transform="translate(-316.000000, -64.000000)" fill="#FFFFFF">
            <path d="M346.492,64 C329.952,64 316.5,77.454 316.5,93.988 C316.5,99.93 318.242,105.688 321.546,110.632 C327.136,118.988 336.46,123.976 346.492,123.976 C356.524,123.976 365.852,118.988 371.438,110.628 C374.734,105.698 376.478,99.94 376.478,93.988 C376.476,77.454 363.028,64 346.492,64 L346.492,64 Z M346.492,66.148 C361.84,66.148 374.324,78.636 374.324,93.988 C374.324,99.016 372.988,103.89 370.442,108.172 C370.348,108.062 370.224,107.988 370.134,107.882 C369.134,106.754 368.048,105.718 366.842,104.796 C366.654,104.652 366.444,104.518 366.244,104.382 C364.948,103.452 363.572,102.604 362.052,101.914 C361.544,101.676 360.938,101.878 360.67,102.368 C357.794,107.504 352.366,110.696 346.494,110.696 C340.626,110.696 335.194,107.504 332.31,102.368 C332.186,102.146 331.986,102.012 331.768,101.922 C331.706,101.898 331.654,101.89 331.592,101.876 C331.514,101.86 331.448,101.818 331.374,101.818 C331.222,101.818 331.07,101.85 330.928,101.916 C329.412,102.608 328.034,103.452 326.74,104.38 C326.536,104.52 326.326,104.654 326.134,104.802 C324.926,105.728 323.834,106.766 322.838,107.9 C322.752,108.002 322.634,108.072 322.546,108.178 C319.996,103.886 318.656,99.01 318.656,93.99 C318.652,78.638 331.144,66.148 346.492,66.148 L346.492,66.148 Z M346.492,121.824 C337.464,121.824 329.054,117.464 323.82,110.132 C324.41,109.39 325.074,108.722 325.754,108.07 C326.132,107.71 326.458,107.292 326.864,106.956 C328.106,105.94 329.458,105.042 330.95,104.288 C334.318,109.592 340.184,112.846 346.492,112.846 C352.804,112.846 358.668,109.592 362.028,104.288 C363.52,105.042 364.88,105.94 366.118,106.956 C366.516,107.284 366.832,107.694 367.208,108.05 C367.896,108.706 368.568,109.378 369.166,110.128 C363.93,117.466 355.524,121.824 346.492,121.824 L346.492,121.824 Z M336.122,82.84 C336.122,77.126 340.774,72.472 346.494,72.472 C352.208,72.472 356.858,77.124 356.858,82.84 L356.858,94.286 C356.858,100.004 352.21,104.658 346.494,104.658 C340.776,104.658 336.122,100.006 336.122,94.286 L336.122,82.84 L336.122,82.84 Z M346.492,106.808 C353.394,106.808 359.008,101.19 359.008,94.284 L359.008,82.838 C359.008,75.932 353.394,70.318 346.492,70.318 C339.586,70.318 333.968,75.932 333.968,82.838 L333.968,94.284 C333.968,101.192 339.586,106.808 346.492,106.808 L346.492,106.808 Z" id="User-round-2" sketch:type="MSShapeGroup"></path>
        </g>
    </g>
</svg>